Coordinates
version=1
nRows=24
nColumns=38
inDegrees=no

Units are S.I. units (second, meters, Newtons, ...)
If the header above contains a line with 'inDegrees', this indicates whether rotational values are in degrees (yes) or radians (no).

endheader
time	pelvis_tilt	pelvis_list	pelvis_rotation	pelvis_tx	pelvis_ty	pelvis_tz	hip_flexion_r	hip_adduction_r	hip_rotation_r	knee_angle_r	ankle_angle_r	subtalar_angle_r	mtp_angle_r	hip_flexion_l	hip_adduction_l	hip_rotation_l	knee_angle_l	ankle_angle_l	subtalar_angle_l	mtp_angle_l	lumbar_extension	lumbar_bending	lumbar_rotation	arm_flex_r	arm_add_r	arm_rot_r	elbow_flex_r	pro_sup_r	wrist_flex_r	wrist_dev_r	arm_flex_l	arm_add_l	arm_rot_l	elbow_flex_l	pro_sup_l	wrist_flex_l	wrist_dev_l
115	-2.41181	1.24018	1.18991	0.825664	-0.784423	0.99981	0.223553	0.143843	-0.239674	0	-0.238078	0	0	0.240742	-0.270988	-0.2807	0.103373	-0.274402	0	0	0.346112	0.168114	-0.0726836	-0.0793204	-0.215798	0.381516	0.349964	1.5708	0	0	-0.0891323	-0.308947	0.85465	0.55356	0.903659	0	0
115.01	-2.41457	1.23778	1.19245	0.825606	-0.784507	0.999627	0.226251	0.143968	-0.239086	0	-0.238773	0	0	0.243599	-0.271211	-0.280754	0.103924	-0.274373	0	0	0.349753	0.168138	-0.0715506	-0.082342	-0.214777	0.371614	0.352402	1.5708	0	0	-0.0863445	-0.310723	0.869365	0.553151	0.887009	0	0
115.02	-2.41475	1.23744	1.19249	0.825564	-0.784554	0.999605	0.226628	0.144144	-0.238945	0	-0.238702	0	0	0.244101	-0.271493	-0.281699	0.104417	-0.274316	0	0	0.349873	0.16802	-0.0714364	-0.0823335	-0.214352	0.371219	0.352906	1.5708	0	0	-0.0860847	-0.311286	0.870556	0.553211	0.886652	0	0
115.03	-2.41531	1.23768	1.19228	0.825461	-0.784702	0.999629	0.226311	0.144212	-0.238469	0	-0.238662	0	0	0.243524	-0.271408	-0.281608	0.104352	-0.274245	0	0	0.349424	0.167669	-0.0708381	-0.0819395	-0.213703	0.371231	0.352984	1.5708	0	0	-0.0861611	-0.311929	0.870651	0.553327	0.887651	0	0
115.04	-2.41557	1.23795	1.19223	0.825392	-0.784799	0.999646	0.225968	0.144231	-0.237709	0	-0.238444	0	0	0.2427	-0.271185	-0.280893	0.10338	-0.274629	0	0	0.348889	0.167189	-0.0707021	-0.0812526	-0.21317	0.372427	0.352975	1.5708	0	0	-0.0858895	-0.312657	0.871547	0.553307	0.887642	0	0
115.05	-2.41495	1.23816	1.1916	0.825346	-0.784866	0.999663	0.225617	0.144439	-0.237763	0	-0.238406	0	0	0.242001	-0.271297	-0.280346	0.102543	-0.275072	0	0	0.3483	0.166791	-0.071357	-0.0797525	-0.212872	0.37711	0.352209	1.5708	0	0	-0.0861012	-0.313348	0.871462	0.553225	0.888634	0	0
115.06	-2.41482	1.23755	1.19132	0.825309	-0.784949	0.999619	0.226144	0.144733	-0.238059	0	-0.238686	0	0	0.242282	-0.27163	-0.27999	0.102102	-0.275092	0	0	0.348936	0.166803	-0.0719955	-0.0792644	-0.212498	0.37918	0.352178	1.5708	0	0	-0.0866699	-0.313738	0.871119	0.553035	0.889044	0	0
115.07	-2.41639	1.23678	1.19237	0.825243	-0.785083	0.999557	0.226981	0.144714	-0.237737	0	-0.238659	0	0	0.242852	-0.271551	-0.280273	0.10179	-0.275187	0	0	0.350196	0.166438	-0.0717336	-0.0789658	-0.211984	0.380777	0.351802	1.5708	0	0	-0.0870494	-0.314327	0.871798	0.552912	0.888304	0	0
115.08	-2.4171	1.23639	1.19284	0.825202	-0.785152	0.999496	0.227395	0.144752	-0.237499	0	-0.238538	0	0	0.243239	-0.271571	-0.280385	0.101808	-0.274967	0	0	0.350627	0.166371	-0.0713595	-0.0788662	-0.211234	0.379368	0.351783	1.5708	0	0	-0.0869255	-0.314921	0.873577	0.552874	0.886057	0	0
115.09	-2.41662	1.23609	1.19233	0.825187	-0.785193	0.999462	0.227607	0.145019	-0.237691	0	-0.238584	0	0	0.243462	-0.271923	-0.280038	0.101844	-0.274872	0	0	0.350733	0.16657	-0.0716468	-0.0784004	-0.210672	0.378771	0.35179	1.5708	0	0	-0.0871769	-0.315224	0.874061	0.552859	0.88349	0	0
115.1	-2.41693	1.23591	1.19235	0.825142	-0.785283	0.999434	0.227762	0.145106	-0.237413	0	-0.238253	0	0	0.24339	-0.272049	-0.280148	0.101662	-0.274967	0	0	0.35092	0.166508	-0.0712808	-0.0782734	-0.210284	0.37866	0.352135	1.5708	0	0	-0.0872197	-0.315542	0.874867	0.552553	0.88156	0	0
115.11	-2.4173	1.23581	1.19258	0.825115	-0.785369	0.999398	0.227793	0.145157	-0.237329	0	-0.238139	0	0	0.243499	-0.272164	-0.280632	0.102092	-0.275021	0	0	0.351038	0.1664	-0.07061	-0.0784776	-0.209908	0.377759	0.352766	1.5708	0	0	-0.0867703	-0.315915	0.876591	0.551988	0.880334	0	0
115.12	-2.41821	1.23542	1.19298	0.825072	-0.78549	0.99934	0.228143	0.145172	-0.236937	0	-0.238341	0	0	0.243897	-0.272368	-0.281955	0.102651	-0.274823	0	0	0.351685	0.166303	-0.0700503	-0.0786772	-0.209431	0.376449	0.353334	1.5708	0	0	-0.0869728	-0.316188	0.877183	0.551518	0.879886	0	0
115.13	-2.41739	1.23526	1.19203	0.825048	-0.785578	0.999317	0.228079	0.145567	-0.237338	0	-0.238483	0	0	0.243568	-0.272708	-0.281294	0.102066	-0.274659	0	0	0.351755	0.166532	-0.0702903	-0.0783682	-0.209013	0.375152	0.353862	1.5708	0	0	-0.087355	-0.316227	0.87674	0.550945	0.880219	0	0
115.14	-2.41727	1.23463	1.19195	0.825023	-0.785654	0.999251	0.228611	0.145873	-0.237794	0	-0.238422	0	0	0.244045	-0.272976	-0.2804	0.101765	-0.27435	0	0	0.352552	0.166711	-0.07026	-0.078412	-0.20848	0.372621	0.354334	1.5708	0	0	-0.087396	-0.316265	0.877689	0.550069	0.880294	0	0
115.15	-2.41807	1.23385	1.19254	0.824991	-0.785747	0.999173	0.229428	0.145964	-0.237772	0	-0.238495	0	0	0.244889	-0.273124	-0.280157	0.101944	-0.273859	0	0	0.353633	0.166829	-0.0695187	-0.0790014	-0.208021	0.369568	0.355114	1.5708	0	0	-0.0871266	-0.316636	0.87987	0.549738	0.878124	0	0
115.16	-2.41875	1.23315	1.19322	0.824984	-0.785784	0.999099	0.230191	0.146006	-0.237719	0	-0.23856	0	0	0.245471	-0.27321	-0.280188	0.101574	-0.274059	0	0	0.354432	0.166888	-0.0690891	-0.0795048	-0.207857	0.367608	0.356268	1.5708	0	0	-0.0869622	-0.316949	0.881298	0.549555	0.876486	0	0
115.17	-2.41791	1.23299	1.1928	0.825005	-0.785812	0.999072	0.230216	0.146297	-0.23821	0	-0.23871	0	0	0.245506	-0.273479	-0.279451	0.101245	-0.274192	0	0	0.354362	0.167087	-0.0693159	-0.0795212	-0.207764	0.366464	0.357409	1.5708	0	0	-0.0870152	-0.317062	0.881155	0.549358	0.876693	0	0
115.18	-2.41524	1.23378	1.19051	0.825008	-0.785869	0.999123	0.228995	0.1469	-0.238987	0	-0.238623	0	0	0.244356	-0.273933	-0.277986	0.101148	-0.2744	0	0	0.352876	0.167517	-0.0694935	-0.0790823	-0.207526	0.365291	0.358245	1.5708	0	0	-0.0866196	-0.317369	0.881814	0.549282	0.875813	0	0
115.19	-2.41303	1.23511	1.18783	0.824933	-0.786017	0.999234	0.227224	0.147359	-0.239023	0	-0.238702	0	0	0.24186	-0.274041	-0.276004	0.0998289	-0.274512	0	0	0.35084	0.167808	-0.0688636	-0.0785385	-0.207123	0.364615	0.358748	1.5708	0	0	-0.0864865	-0.317724	0.881661	0.549376	0.875184	0	0
115.2	-2.41303	1.23545	1.18746	0.8249	-0.786124	0.999258	0.226777	0.147355	-0.239039	0	-0.23881	0	0	0.240943	-0.273874	-0.274644	0.0990261	-0.274242	0	0	0.35039	0.16778	-0.0684219	-0.0785579	-0.206803	0.363838	0.359438	1.5708	0	0	-0.0867532	-0.317872	0.880966	0.549443	0.874823	0	0
115.21	-2.41571	1.23427	1.18971	0.824903	-0.78625	0.999163	0.228134	0.147014	-0.238624	0	-0.238661	0	0	0.241826	-0.273501	-0.275126	0.0980775	-0.274499	0	0	0.352558	0.167408	-0.0682696	-0.0790444	-0.206615	0.364419	0.359718	1.5708	0	0	-0.08771	-0.317994	0.881147	0.549288	0.874317	0	0
115.22	-2.41681	1.23322	1.19118	0.82497	-0.786276	0.999074	0.229285	0.146895	-0.238664	0	-0.238784	0	0	0.243351	-0.27364	-0.276354	0.098622	-0.274572	0	0	0.354139	0.167255	-0.0689416	-0.0792753	-0.206503	0.364999	0.36015	1.5708	0	0	-0.0882504	-0.318143	0.882264	0.549174	0.873556	0	0
115.23	-2.4177	1.23259	1.19266	0.825065	-0.786206	0.999012	0.2301	0.146583	-0.238594	0	-0.238774	0	0	0.244847	-0.273672	-0.277874	0.0997135	-0.274331	0	0	0.354816	0.167098	-0.0693768	-0.079373	-0.20642	0.364906	0.360821	1.5708	0	0	-0.0883548	-0.318063	0.882615	0.549036	0.873474	0	0
